<svg xmlns="http://www.w3.org/2000/svg" class="icon icon-tabler icon-tabler-palette" width="250px" height="250px" viewBox="0 0 24 24" stroke-width="1.00" stroke="rgba(1, 1, 1, 1)" fill="none" stroke-linecap="round" stroke-linejoin="round"><circle cx="50%" cy="50%" r="50%" stroke="none" stroke-width="0" fill="rgba(255, 255, 255, 1)"/><g transform="translate(2.40, 2.40) scale(0.8)"><path stroke="none" d="M0 0h24v24H0z" fill="none"/><path d="M12 21a9 9 0 1 1 0 -18a9 8 0 0 1 9 8a4.5 4 0 0 1 -4.5 4h-2.5a2 2 0 0 0 -1 3.75a1.3 1.3 0 0 1 -1 2.25"/><circle cx="7.5" cy="10.5" r=".5" fill="currentColor"/><circle cx="12" cy="7.5" r=".5" fill="currentColor"/><circle cx="16.5" cy="10.5" r=".5" fill="currentColor"/></g>
  
  
  
  
  
</svg>